<?xml version="1.0" standalone="no"?>
<!DOCTYPE svg PUBLIC "-//W3C//DTD SVG 20010904//EN"
 "http://www.w3.org/TR/2001/REC-SVG-20010904/DTD/svg10.dtd">
<svg version="1.0" xmlns="http://www.w3.org/2000/svg"
 width="1024.000000pt" height="1024.000000pt" viewBox="0 0 1024.000000 1024.000000"
 preserveAspectRatio="xMidYMid meet">

<g transform="translate(0.000000,1024.000000) scale(0.100000,-0.100000)"
fill="#FFC300" stroke="none">
<path d="M3290 7243 c102 -98 324 -315 493 -483 l308 -305 747 -5 747 -5 -340
-335 c-350 -345 -566 -554 -740 -720 -485 -462 -1222 -1176 -1578 -1529 l-297
-296 382 -382 382 -382 340 332 c187 183 536 523 776 757 239 234 577 563 750
730 173 168 459 446 635 619 176 172 364 354 417 403 88 81 97 87 93 62 -3
-16 -23 -146 -45 -289 -22 -143 -53 -339 -70 -435 -42 -248 -77 -458 -110
-660 -16 -96 -40 -238 -53 -315 -14 -77 -37 -210 -51 -295 -14 -85 -48 -283
-75 -440 -26 -157 -52 -312 -56 -344 l-7 -60 464 455 c254 250 531 522 615
604 l152 150 40 235 c23 129 63 377 91 550 28 173 66 410 85 525 48 291 159
993 200 1270 19 127 53 346 75 488 22 142 40 262 40 267 0 7 -835 10 -2297 10
l-2298 0 185 -177z"/>
</g>
</svg>
